<svg id="Logo" xmlns="http://www.w3.org/2000/svg" xmlns:xlink="http://www.w3.org/1999/xlink" width="195.015" height="105.667" viewBox="0 0 195.015 105.667">
  <defs>
    <clipPath id="clip-path">
      <rect id="Retângulo_2" data-name="Retângulo 2" width="195.015" height="105.667" fill="none"/>
    </clipPath>
  </defs>
  <g id="Grupo_1" data-name="Grupo 1" clip-path="url(#clip-path)">
    <path id="Caminho_1" data-name="Caminho 1" d="M90.763,29.864c-1.934-5.751-6.876-10.026-12.348-12.323-.77-.22-2.173-1.074-2.523.175,2.148,3.079,6.2,5.925,4.994,10.22-1.921,3.965-6.378,5.893-10.376,7.109-5.485,1.915-11.359,1.281-17.051,1.345A25.78,25.78,0,0,1,41.4,33.227a104.052,104.052,0,0,1-13.118-7.652c-3.377-2.5-6.941-5.453-7.963-9.729-.627-2.49.957-4.819,2.73-6.391,3.48-3.014,8.2-3.771,12.161-5.951.8-.554,1.212-.946-.091-1.391C31.595,1.169,28.089-.2,24.376.031c-3.545-.207-6.967.854-10.3,1.9A21.871,21.871,0,0,0,3.12,9.572C1.335,12.095-.69,15.083.229,18.337c2.562,8.836,9.625,15.195,16.508,20.8-1.074,2.542-2.659,5.026-2.594,7.879-.1,2.768,1.74,5.02,3.014,7.317,2.3,3.913,4.36,8.15,4.974,12.691.479,2.886-1.527,5.207-2.374,7.788C19.589,77,22.1,77.762,23.626,78.676c3.648,1.617,6.908,4.023,10.628,5.478,4.25.635,8.312-1.391,12.271-2.651,1.345-6,4.819-11.249,8.894-15.752C58,62.9,61.784,61.417,64.1,58.293c1.695-2.186,2.348-4.928,2.885-7.588,7.368-1.655,15.512-2.988,20.977-8.7a11.65,11.65,0,0,0,2.8-12.141" transform="translate(0 -0.002)" fill="#b71a1a"/>
    <path id="Caminho_2" data-name="Caminho 2" d="M196.445,27.157a15.006,15.006,0,0,0,1.488-11.2,17.874,17.874,0,0,0-5.1-7.458c-5-4.3-11.1-6.348-17.769-7.749-3.092-1.262-48.138-2.446-64.782,9.819-4.813,2.71-9.438,6.281-11.986,11.3a11.006,11.006,0,0,0-.6,9.373c2.723.627,4.6-1.6,5.932-3.642-.006-1.972-2.025-3.725-1.041-5.776,1.675-4.509,6.469-6.578,10.5-8.513,11.449-4.7,23.8-6.817,36.049-8.02,7.284-.123,14.625-.382,21.8,1.087,6.707,1.326,13.6,3.771,18.4,8.862a11.586,11.586,0,0,1,3.564,8.461c.085,4.3-2.82,8.053-6.249,10.363-5.259,3.576-11.443,5.543-17.614,6.844-2.115.634-3.888-.9-5.75-1.591a60.467,60.467,0,0,0-16.528-3.713c.006-3.248.1-6.494.058-9.742-.563.039-2.36,1.635-2.923,1.674-.054,2.473-.272,3.353-.292,5.843a2.009,2.009,0,0,1-1.229,2.134c-5.447.259-11.275,1.113-15.777,4.438-1.831,1.3-3.726,4.631-1.074,6.112,5.052,2.264,10.757,2.626,16.236,2.6-.362,5.027-.032,10.059.091,15.092a7.9,7.9,0,0,0,2.956-1.093,3.258,3.258,0,0,0,3.674,2.27c7.31-.1,13.849-4.483,18.9-9.445a11,11,0,0,0,3.46-10.239c10.149-2.931,20.687-8.242,25.609-18.093m-54,15.634a31.986,31.986,0,0,1-8.312-.957,13.366,13.366,0,0,1,8.325-.924c-.006.627-.013,1.255-.013,1.882m3.5-1.776a12.028,12.028,0,0,1,5.558,2.107,25.357,25.357,0,0,1-5.518.193,8.018,8.018,0,0,1-.041-2.3M164.134,54.2a22.262,22.262,0,0,1-10.473,5.175c-1.028.31-1.986-.265-2.924-.57.3-.97.621-1.933.9-2.917-3.131-.989-4.7,1.288-6.514,4.211-.233-3.783-.239-7.574-.162-11.358,3.357-.246,14.45-.981,18.519-1.572.9,1.346,2.465,2.562,2.205,4.353.143,1.146-.86,1.928-1.552,2.679" transform="translate(-34.224 0)" fill="#fff"/>
    <path id="Caminho_3" data-name="Caminho 3" d="M282.785,59.44c-.705-2.827-2.05-5.479-2.393-8.435-4.34.013-8.067,5.446-5.538,9.315,2.659-.058,5.453.349,7.93-.88" transform="translate(-96.774 -18.012)" fill="#fff"/>
    <path id="Caminho_4" data-name="Caminho 4" d="M259.93,84.634c-1.915-1.611-3.907-3.784-3.745-6.469-.331-2.322,1.488-4.12,1.74-6.346a6.7,6.7,0,0,0-5.194,1.8,16.337,16.337,0,0,0-3.8,5.395,24.533,24.533,0,0,1-12.555,1.249c-1.474-.964-2.4-2.5-3.558-3.791-2.193-.1-4.392-.195-6.585-.09a10.627,10.627,0,0,0-9.974,7.005c-.329,2.827,2.853,4.838,5.395,4.864,4.877.375,8.946-2.684,13.176-4.56,4.755-1.086,9.762-.964,14.387-2.71.939,1.772,1.721,3.829,3.6,4.833,5.407,3.227,11.941,3.886,18.118,3.622.589-.666.3-1.637.446-2.439-3.913.169-8.156.039-11.449-2.361m-33.093.873c-2.322.395-5.278-1.442-4.9-4.043-.129-1.229,1.268-2.988,2.562-2.135a49,49,0,0,1,5.595,3.292,6.493,6.493,0,0,1-3.26,2.885" transform="translate(-76.364 -25.36)" fill="#fff"/>
    <path id="Caminho_5" data-name="Caminho 5" d="M163.877,122.9a4.856,4.856,0,0,0-.818-.981,5.1,5.1,0,0,0-1.141-.806,5.931,5.931,0,0,0-1.364-.483,13.335,13.335,0,0,0-1.575-.261v-.049a6.464,6.464,0,0,0,2.865-1.513,3.56,3.56,0,0,0,1.067-2.679,3.718,3.718,0,0,0-.373-1.655,4.324,4.324,0,0,0-1.06-1.365,4.993,4.993,0,0,0-1.68-.942,6.63,6.63,0,0,0-2.17-.341h-5.965v.21h.223a1.579,1.579,0,0,1,1.259.539,2.266,2.266,0,0,1,.465,1.52v13.79a2.042,2.042,0,0,1-.5,1.506,1.631,1.631,0,0,1-1.2.5h-.247v.2h6.833a7.621,7.621,0,0,0,3.658-.733,5.317,5.317,0,0,0,1.668-1.56,4.106,4.106,0,0,0,.738-2.457,4.79,4.79,0,0,0-.174-1.283,4.355,4.355,0,0,0-.508-1.159m-8.383-10.231a5.752,5.752,0,0,1,1.624-.274,3.44,3.44,0,0,1,1.488.323,3.581,3.581,0,0,1,1.179.891,4.009,4.009,0,0,1,.756,1.309,4.634,4.634,0,0,1,.26,1.556,3.829,3.829,0,0,1-.391,1.8,3.466,3.466,0,0,1-.818,1.091,4.606,4.606,0,0,1-.825.545,5.188,5.188,0,0,1-2.083.3h-1.191Zm6.225,15.191a3.918,3.918,0,0,1-3.584,1.675,3.845,3.845,0,0,1-1.8-.323,1.36,1.36,0,0,1-.713-.762,3.911,3.911,0,0,1-.131-1.1v-6.584h1.873a6.614,6.614,0,0,1,2.108.321,4.6,4.6,0,0,1,1.606.887,3.941,3.941,0,0,1,1,1.408,4.992,4.992,0,0,1-.366,4.477" transform="translate(-53.559 -39.49)" fill="#fff"/>
    <path id="Caminho_6" data-name="Caminho 6" d="M194.579,128.285l-1.653-2.217a7.028,7.028,0,0,0-3.032-2.5v-.039a5.726,5.726,0,0,0,2.156-.71,3.533,3.533,0,0,0,1.28-1.246,2.993,2.993,0,0,0,.417-1.513,3.392,3.392,0,0,0-.255-1.261,3.562,3.562,0,0,0-.845-1.217,4.468,4.468,0,0,0-1.653-.951,7.881,7.881,0,0,0-2.591-.374h-6.337v.206h.248a2.067,2.067,0,0,1,1.168.355,1.356,1.356,0,0,1,.535,1.222v10.977a1.461,1.461,0,0,1-.28.941,1.491,1.491,0,0,1-.7.493,3.43,3.43,0,0,1-.97.163v.158h5.828v-.158q-1.988-.05-1.988-1.6V123.7a9.292,9.292,0,0,1,1.125.06,4.428,4.428,0,0,1,1.074.3,5.228,5.228,0,0,1,1.287.783,7.7,7.7,0,0,1,1.348,1.424l2.188,2.867a3.808,3.808,0,0,1,.291.34c.161.2.284.35.367.448.14.151.274.294.4.429s.257.274.4.419h3.33v-.158a3.14,3.14,0,0,1-1.336-.444,7.471,7.471,0,0,1-1.8-1.882m-7.631-4.967H185.9v-6.592a6.017,6.017,0,0,1,1.143-.089,5.758,5.758,0,0,1,2.728.547,3.339,3.339,0,0,1,1.435,1.35,3.487,3.487,0,0,1,.422,1.64,2.687,2.687,0,0,1-1.994,2.769,8.137,8.137,0,0,1-2.691.375" transform="translate(-64.296 -41.054)" fill="#fff"/>
    <path id="Caminho_7" data-name="Caminho 7" d="M227.974,129.951a5.83,5.83,0,0,1-.768-1.4l-5.135-12.436h-1.257l-4.842,12.5a3.992,3.992,0,0,1-.9,1.483,2.2,2.2,0,0,1-1.38.556v.158h4.028v-.158a2.123,2.123,0,0,1-1.024-.2.847.847,0,0,1-.361-.812,3.491,3.491,0,0,1,.279-1.173l1.362-3.567h5.937l1.525,3.853a.27.27,0,0,0,.047.118,2.614,2.614,0,0,1,.221.9.68.68,0,0,1-.465.749,4.922,4.922,0,0,1-1.327.138v.158h5.6v-.158a3.5,3.5,0,0,1-.844-.152,1.684,1.684,0,0,1-.693-.547m-9.8-5.577,2.62-6.888h.047l2.793,6.888Z" transform="translate(-75.464 -41.006)" fill="#fff"/>
    <path id="Caminho_8" data-name="Caminho 8" d="M254.923,123.02q-1.1-.533-1.739-.882a6.511,6.511,0,0,1-1.118-.754,2.715,2.715,0,0,1-.717-.931,2.86,2.86,0,0,1-.243-1.207,2.968,2.968,0,0,1,.407-1.557,2.859,2.859,0,0,1,1.151-1.074,3.589,3.589,0,0,1,1.706-.4,3.443,3.443,0,0,1,2.366.794,3.025,3.025,0,0,1,1.056,1.847h.181v-3.1h-.181c-.091.3-.26.443-.509.443a1.241,1.241,0,0,1-.485-.078,8.229,8.229,0,0,0-2.247-.325,5.729,5.729,0,0,0-2.586.567,4.4,4.4,0,0,0-1.761,1.5,3.5,3.5,0,0,0-.622,1.961,3.418,3.418,0,0,0,.35,1.571,3.822,3.822,0,0,0,.944,1.187,7.071,7.071,0,0,0,1.169.819q.576.315,1.772.887a10.538,10.538,0,0,1,2.592,1.581,2.572,2.572,0,0,1,.853,2,2.635,2.635,0,0,1-.294,1.182,2.4,2.4,0,0,1-1.056,1.006,4.252,4.252,0,0,1-2.026.413,4.876,4.876,0,0,1-2.858-.818,4.029,4.029,0,0,1-1.581-2.414h-.192v3.636h.192a3.988,3.988,0,0,1,.2-.641.312.312,0,0,1,.31-.147,2.084,2.084,0,0,1,.463.1,10.388,10.388,0,0,0,1.6.538,7.739,7.739,0,0,0,1.818.191,6.12,6.12,0,0,0,2.744-.551,4.015,4.015,0,0,0,1.655-1.415,3.285,3.285,0,0,0,.548-1.789,2.986,2.986,0,0,0-1.016-2.389,13.131,13.131,0,0,0-2.846-1.749" transform="translate(-88.023 -40.88)" fill="#fff"/>
    <path id="Caminho_9" data-name="Caminho 9" d="M289.787,130.5a1.7,1.7,0,0,1-.7-.547,5.8,5.8,0,0,1-.778-1.4l-5.2-12.436h-1.273l-4.9,12.5a3.983,3.983,0,0,1-.914,1.483,2.24,2.24,0,0,1-1.4.556v.158h4.08v-.158a2.174,2.174,0,0,1-1.038-.2.842.842,0,0,1-.366-.812,3.467,3.467,0,0,1,.283-1.173l1.379-3.567h6.013l1.545,3.853a.266.266,0,0,0,.047.118,2.592,2.592,0,0,1,.224.9.68.68,0,0,1-.472.749,5.049,5.049,0,0,1-1.344.138v.158h5.671v-.158a3.57,3.57,0,0,1-.854-.152m-10.629-6.124,2.653-6.888h.047l2.83,6.888Z" transform="translate(-96.981 -41.006)" fill="#fff"/>
    <path id="Caminho_10" data-name="Caminho 10" d="M124.027,127.407a11.559,11.559,0,0,1-1.156-.669q-.678-.439-1.6-1.137-.9-.675-2.076-1.656c-.162.292-.386.646-.092.146.03-.051.057-.1.086-.151l-.067-.056c.22-.283.23-.251.168-.119.468-.807.91-1.6,1.317-2.367a4.41,4.41,0,0,1,.431-.684,1.738,1.738,0,0,1,.428-.394,1.545,1.545,0,0,1,.512-.2c.188-.039.415-.089.679-.145.285-.039.43-.174.43-.409a1.575,1.575,0,0,0-.034-.232c-.022-.116-.043-.224-.066-.321q-.595.058-1.29.074t-1.388.014q-.761,0-1.653-.014c-.594-.01-1.113-.035-1.553-.074a1.378,1.378,0,0,0-.1.495.417.417,0,0,0,.083.306.857.857,0,0,0,.347.131,3.477,3.477,0,0,1,1.074.364.544.544,0,0,1,.282.451,3.191,3.191,0,0,1-.182.917,8.53,8.53,0,0,1-.516,1.223c.006-.02-.011-.007-.06.056q-1.124-.931-2.529-2.125t-3.091-2.709a7.335,7.335,0,0,0,2.4-1.949,3.846,3.846,0,0,0,.91-2.388,3.078,3.078,0,0,0-1.306-2.5,6.057,6.057,0,0,0-3.785-1.019,7.522,7.522,0,0,0-2.2.307,5.612,5.612,0,0,0-1.736.844,4.048,4.048,0,0,0-1.141,1.267,3.121,3.121,0,0,0-.413,1.572,3.568,3.568,0,0,0,.148,1,4.543,4.543,0,0,0,.5,1.078,8.256,8.256,0,0,0,.926,1.208,18.256,18.256,0,0,0,1.471,1.426,15.727,15.727,0,0,0-1.785.99,9.42,9.42,0,0,0-1.537,1.223,5.4,5.4,0,0,0-1.075,1.485,4.073,4.073,0,0,0-.4,1.8,4.241,4.241,0,0,0,.479,2.069,3.975,3.975,0,0,0,1.355,1.441,6.232,6.232,0,0,0,2.066.829,11.986,11.986,0,0,0,2.579.262,9.844,9.844,0,0,0,3.95-.727,25.127,25.127,0,0,0,4.2-3.245,26.315,26.315,0,0,0,2.413,1.864,3.111,3.111,0,0,0,1.686.583h1.206c.539,0,1.024.022.7-.133m-14.892-15.241a1.8,1.8,0,0,1,1.389-.539,2.116,2.116,0,0,1,1.6.64,2.6,2.6,0,0,1,.611,1.864,4.007,4.007,0,0,1-.347,1.53,5.491,5.491,0,0,1-1.041,1.585,12.206,12.206,0,0,1-2.033-2.008,2.97,2.97,0,0,1-.677-1.777,1.842,1.842,0,0,1,.5-1.294m5.356,14.1a5.709,5.709,0,0,1-1.124.495,6.334,6.334,0,0,1-1.141.246,9.806,9.806,0,0,1-1.239.074,6.012,6.012,0,0,1-1.472-.176,3.556,3.556,0,0,1-1.256-.566,3.1,3.1,0,0,1-.892-1,2.894,2.894,0,0,1-.347-1.456,4.5,4.5,0,0,1,.561-2.286,23.153,23.153,0,0,1,2.772-3.078q2.082,1.894,3.719,3.261T117,124.139c-.419.331-2.133,1.921-2.507,2.133m3.4-3.014c-.192.355-.4.717-.646,1.094-.206.321.338-.563.646-1.094" transform="translate(-36.509 -38.938)" fill="#fff"/>
    <path id="Caminho_11" data-name="Caminho 11" d="M127.819,131.318c.038-.068.071-.131.094-.18-.034.059-.066.116-.1.175l.006.005" transform="translate(-45.137 -46.311)" fill="#fff"/>
    <path id="Caminho_12" data-name="Caminho 12" d="M243.3,147.954a11,11,0,0,1-.469,1.662l-.956,2.554h2.951l-.908-2.411q-.417-1.1-.618-1.8" transform="translate(-85.418 -52.25)" fill="#e22424"/>
    <path id="Caminho_13" data-name="Caminho 13" d="M170.451,150.221a1.41,1.41,0,0,0,.232-.781,1.3,1.3,0,0,0-.448-1.016,2.105,2.105,0,0,0-1.416-.4h-2.756v2.881h2.476a3.743,3.743,0,0,0,1.236-.162,1.316,1.316,0,0,0,.677-.523" transform="translate(-58.644 -52.275)" fill="#e22424"/>
    <path id="Caminho_14" data-name="Caminho 14" d="M185.91,150.221a1.415,1.415,0,0,0,.232-.781,1.3,1.3,0,0,0-.448-1.016,2.105,2.105,0,0,0-1.417-.4h-2.755v2.881H184a3.74,3.74,0,0,0,1.235-.162,1.317,1.317,0,0,0,.677-.523" transform="translate(-64.104 -52.275)" fill="#e22424"/>
    <path id="Caminho_15" data-name="Caminho 15" d="M280.283,147.954a10.925,10.925,0,0,1-.469,1.662l-.956,2.554h2.951l-.908-2.411q-.416-1.1-.618-1.8" transform="translate(-98.478 -52.25)" fill="#e22424"/>
    <path id="Caminho_16" data-name="Caminho 16" d="M260.089,150.221a1.42,1.42,0,0,0,.231-.781,1.3,1.3,0,0,0-.448-1.016,2.1,2.1,0,0,0-1.416-.4H255.7v2.881h2.476a3.742,3.742,0,0,0,1.235-.162,1.317,1.317,0,0,0,.677-.523" transform="translate(-90.3 -52.275)" fill="#e22424"/>
    <path id="Caminho_17" data-name="Caminho 17" d="M104.718,156.232h126.46V143.185H104.718Zm14.574-2.769a3.585,3.585,0,0,1-2.3.747,4.139,4.139,0,0,1-2.289-.574,3.584,3.584,0,0,1-1.342-1.661,5.917,5.917,0,0,1-.46-2.334,5.133,5.133,0,0,1,.519-2.371,3.561,3.561,0,0,1,1.479-1.538,4.322,4.322,0,0,1,2.111-.526,3.56,3.56,0,0,1,2.2.666,3.448,3.448,0,0,1,1.241,1.869l-1.134.268a2.684,2.684,0,0,0-.879-1.384,2.343,2.343,0,0,0-1.448-.433,2.818,2.818,0,0,0-1.678.481,2.542,2.542,0,0,0-.947,1.291,5.193,5.193,0,0,0-.274,1.673,5.3,5.3,0,0,0,.324,1.938,2.408,2.408,0,0,0,1.007,1.238,2.824,2.824,0,0,0,1.478.41,2.48,2.48,0,0,0,1.64-.558,2.853,2.853,0,0,0,.908-1.657l1.153.291a3.872,3.872,0,0,1-1.3,2.164m10.8.6h-1.153v-4.1h-4.525v4.1h-1.152v-8.7h1.152v3.575h4.525v-3.575H130.1Zm10-3.675a5.954,5.954,0,0,1-.3,2.084,2.545,2.545,0,0,1-1.072,1.256,3.8,3.8,0,0,1-2.034.485,4.18,4.18,0,0,1-2-.423,2.4,2.4,0,0,1-1.111-1.221,5.79,5.79,0,0,1-.333-2.181v-5.029H134.4v5.023a4.879,4.879,0,0,0,.211,1.671,1.6,1.6,0,0,0,.724.829,2.521,2.521,0,0,0,1.256.29,2.4,2.4,0,0,0,1.811-.576,3.313,3.313,0,0,0,.541-2.215v-5.023H140.1Zm9.376,3.675-1.152-1.811q-.506-.784-.832-1.2a2.587,2.587,0,0,0-.585-.581,1.714,1.714,0,0,0-.526-.233,3.585,3.585,0,0,0-.642-.041H144.4v3.866h-1.152v-8.7h3.86a5.142,5.142,0,0,1,1.77.234,1.932,1.932,0,0,1,.967.829,2.464,2.464,0,0,1,.363,1.313,2.186,2.186,0,0,1-.6,1.561,3.038,3.038,0,0,1-1.853.807,3.042,3.042,0,0,1,.695.434,5.974,5.974,0,0,1,.957,1.159l1.514,2.368Zm10,0-1.152-1.811q-.5-.784-.83-1.2a2.627,2.627,0,0,0-.585-.581,1.725,1.725,0,0,0-.525-.233,3.608,3.608,0,0,0-.642-.041H154.4v3.866h-1.152v-8.7h3.86a5.128,5.128,0,0,1,1.768.234,1.941,1.941,0,0,1,.969.829,2.481,2.481,0,0,1,.362,1.313,2.184,2.184,0,0,1-.6,1.561,3.031,3.031,0,0,1-1.852.807,3.057,3.057,0,0,1,.695.434,5.972,5.972,0,0,1,.956,1.159l1.514,2.368Zm9.637,0-1.016-2.636h-3.639l-.957,2.636h-1.223l3.344-8.7h1.241l3.564,8.7Zm9.59-1.148a2.621,2.621,0,0,1-1.144.955,3.975,3.975,0,0,1-1.677.343,4.974,4.974,0,0,1-1.981-.347,2.764,2.764,0,0,1-1.252-1.035,2.941,2.941,0,0,1-.479-1.566l1.087-.094a2.4,2.4,0,0,0,.359,1.072,1.949,1.949,0,0,0,.876.677,3.311,3.311,0,0,0,1.337.259,3.2,3.2,0,0,0,1.163-.2,1.6,1.6,0,0,0,.751-.537,1.241,1.241,0,0,0,.246-.746,1.139,1.139,0,0,0-.237-.715,1.76,1.76,0,0,0-.784-.513,15.162,15.162,0,0,0-1.55-.424,7.963,7.963,0,0,1-1.681-.543,2.368,2.368,0,0,1-.929-.811,1.986,1.986,0,0,1-.307-1.084,2.214,2.214,0,0,1,.375-1.233,2.319,2.319,0,0,1,1.093-.87,4.147,4.147,0,0,1,1.6-.3,4.357,4.357,0,0,1,1.708.312,2.459,2.459,0,0,1,1.137.918,2.633,2.633,0,0,1,.428,1.371l-1.105.083a1.777,1.777,0,0,0-.6-1.247,2.347,2.347,0,0,0-1.517-.421,2.439,2.439,0,0,0-1.524.382,1.149,1.149,0,0,0-.478.923.993.993,0,0,0,.338.773,4.616,4.616,0,0,0,1.737.621,11.633,11.633,0,0,1,1.927.554,2.642,2.642,0,0,1,1.123.889,2.168,2.168,0,0,1,.361,1.237,2.38,2.38,0,0,1-.4,1.311m9.248.551a3.584,3.584,0,0,1-2.3.747,4.141,4.141,0,0,1-2.289-.574,3.588,3.588,0,0,1-1.342-1.661,5.906,5.906,0,0,1-.46-2.334,5.134,5.134,0,0,1,.519-2.371,3.56,3.56,0,0,1,1.479-1.538,4.321,4.321,0,0,1,2.111-.526,3.56,3.56,0,0,1,2.2.666,3.448,3.448,0,0,1,1.241,1.869l-1.135.268a2.688,2.688,0,0,0-.878-1.384,2.347,2.347,0,0,0-1.45-.433,2.814,2.814,0,0,0-1.677.481,2.532,2.532,0,0,0-.948,1.291,5.21,5.21,0,0,0-.273,1.673,5.3,5.3,0,0,0,.323,1.938,2.406,2.406,0,0,0,1.007,1.238,2.82,2.82,0,0,0,1.478.41,2.482,2.482,0,0,0,1.64-.558,2.859,2.859,0,0,0,.907-1.657l1.152.291a3.868,3.868,0,0,1-1.3,2.164m9.818.6-1.016-2.636h-3.64l-.956,2.636h-1.223l3.343-8.7h1.241l3.564,8.7Zm9.69,0-1.152-1.811q-.5-.784-.831-1.2a2.588,2.588,0,0,0-.586-.581,1.714,1.714,0,0,0-.525-.233,3.6,3.6,0,0,0-.642-.041h-1.336v3.866h-1.152v-8.7h3.86a5.133,5.133,0,0,1,1.769.234,1.94,1.94,0,0,1,.968.829,2.475,2.475,0,0,1,.362,1.313,2.187,2.187,0,0,1-.6,1.561,3.033,3.033,0,0,1-1.852.807,3.086,3.086,0,0,1,.695.434,5.968,5.968,0,0,1,.955,1.159l1.515,2.368Zm5.106,0h-1.151v-8.7h1.151Zm9.126,0-1.016-2.636h-3.64l-.957,2.636H214.85l3.343-8.7h1.241l3.564,8.7Z" transform="translate(-36.981 -50.565)" fill="#e22424"/>
    <path id="Caminho_18" data-name="Caminho 18" d="M199,147.954a11,11,0,0,1-.47,1.662l-.956,2.554h2.951l-.908-2.411q-.416-1.1-.617-1.8" transform="translate(-69.773 -52.25)" fill="#e22424"/>
    <path id="Caminho_19" data-name="Caminho 19" d="M48.881,35.949a30.9,30.9,0,0,1-7.48-2.722,104.052,104.052,0,0,1-13.118-7.652c-3.377-2.5-6.941-5.453-7.963-9.729-.627-2.49.957-4.819,2.73-6.391,3.48-3.014,8.2-3.771,12.161-5.951.8-.554,1.212-.947-.091-1.391C31.595,1.169,28.089-.2,24.376.031c-3.545-.207-6.967.854-10.3,1.9A21.871,21.871,0,0,0,3.12,9.572C1.335,12.095-.69,15.083.229,18.337c2.562,8.836,9.625,15.195,16.508,20.8-1.074,2.542-2.659,5.026-2.594,7.879-.1,2.768,1.74,5.02,3.014,7.316,2.3,3.913,4.36,8.15,4.974,12.691.479,2.886-1.527,5.207-2.374,7.788a2.689,2.689,0,0,0,1.393,2.473l3.818,2.025c.582.291,1.155.6,1.725.915L33.246,83.7l4.2-.978c5.929-3.913,12.846-29.1,12.846-29.1,1.343-9.753-.966-16.493-1.41-17.67" transform="translate(0 -0.002)" fill="#e22424"/>
  </g>
</svg>
