<svg xmlns="http://www.w3.org/2000/svg" viewBox="0 0 91 84" fill="none">
  <path d="M90.763 29.862c-1.934-5.751-6.876-10.026-12.348-12.323-.77-.22-2.173-1.074-2.523.175 2.148 3.079 6.2 5.925 4.994 10.22-1.921 3.965-6.378 5.893-10.376 7.109-5.485 1.915-11.359 1.281-17.051 1.345A25.78 25.78 0 0 1 41.4 33.225a104.052 104.052 0 0 1-13.118-7.652c-3.377-2.5-6.941-5.453-7.963-9.729-.627-2.49.957-4.819 2.73-6.391 3.48-3.014 8.2-3.771 12.161-5.951.8-.554 1.212-.946-.091-1.391C31.595 1.167 28.089-.201 24.376.029c-3.545-.207-6.967.854-10.3 1.9A21.871 21.871 0 0 0 3.12 9.57C1.335 12.093-.69 15.081.229 18.335c2.562 8.836 9.625 15.195 16.508 20.8-1.074 2.542-2.659 5.026-2.594 7.879-.1 2.768 1.74 5.02 3.014 7.317 2.3 3.913 4.36 8.15 4.974 12.691.479 2.886-1.527 5.207-2.374 7.788-.168 2.186 2.343 2.948 3.869 3.862 3.648 1.617 6.908 4.023 10.628 5.478 4.25.635 8.312-1.391 12.271-2.651 1.345-6 4.819-11.249 8.894-15.752C58 62.898 61.784 61.415 64.1 58.291c1.695-2.186 2.348-4.928 2.885-7.588 7.368-1.655 15.512-2.988 20.977-8.7a11.65 11.65 0 0 0 2.8-12.141Z" fill="#D61616"/>
  <path d="M48.881 35.947a30.9 30.9 0 0 1-7.48-2.722 104.052 104.052 0 0 1-13.118-7.652c-3.377-2.5-6.941-5.453-7.963-9.729-.627-2.49.957-4.819 2.73-6.391 3.48-3.014 8.2-3.771 12.161-5.951.8-.554 1.212-.947-.091-1.391C31.595 1.167 28.089-.201 24.376.029c-3.545-.207-6.967.854-10.3 1.9A21.871 21.871 0 0 0 3.12 9.57C1.335 12.093-.69 15.081.229 18.335c2.562 8.836 9.625 15.195 16.508 20.8-1.074 2.542-2.659 5.026-2.594 7.879-.1 2.768 1.74 5.02 3.014 7.316 2.3 3.913 4.36 8.15 4.974 12.691.479 2.886-1.527 5.207-2.374 7.788a2.689 2.689 0 0 0 1.393 2.473l3.818 2.025c.582.291 1.155.6 1.725.915l6.553 3.477 4.2-.978c5.929-3.913 12.846-29.1 12.846-29.1 1.343-9.753-.966-16.493-1.41-17.67Z" fill="#A30E0E"/>
</svg>
